<svg xmlns:xlink="http://www.w3.org/1999/xlink" width="118" xmlns="http://www.w3.org/2000/svg" height="105" id="screenshot-661b8320-e3a9-11ec-a0f9-493b0ea59227" viewBox="0 0 118 105" style="-webkit-print-color-adjust: exact;" fill="none" version="1.1"><g id="shape-661b8320-e3a9-11ec-a0f9-493b0ea59227"><defs><clipPath id="frame-clip-661b8320-e3a9-11ec-a0f9-493b0ea59227-1878a160-e3b4-11ec-863d-efb322f2e1a1" class="frame-clip"><rect rx="0" ry="0" x="0" y="0" width="118" height="105" /></clipPath></defs><g clip-path="url(#frame-clip-661b8320-e3a9-11ec-a0f9-493b0ea59227-1878a160-e3b4-11ec-863d-efb322f2e1a1)"><g id="fills-661b8320-e3a9-11ec-a0f9-493b0ea59227"><rect rx="0" ry="0" x="0" y="0" transform="matrix(1,0,0,1,0,0)" width="118" height="105" class="frame-background" /></g><g class="frame-children"><g id="shape-661b8321-e3a9-11ec-a0f9-493b0ea59227" rx="0" ry="0"><g id="shape-661b8322-e3a9-11ec-a0f9-493b0ea59227" class="any-key" width="22" height="22" rx="0" ry="0" style="fill: rgb(0, 0, 0);"><g id="shape-661b832c-e3a9-11ec-a0f9-493b0ea59227"><g id="fills-661b832c-e3a9-11ec-a0f9-493b0ea59227"><path rx="0" ry="0" d="M35.200000000000045,1C25.700000000000045,1,18,8.700000000000045,18,18.200000000000045L18,69.79999999999995C18,79.29999999999995,25.700000000000045,87,35.200000000000045,87L80.79999999999995,87C90.29999999999995,87,98,79.29999999999995,98,69.79999999999995L98,18.200000000000045C98,8.700000000000045,90.29999999999995,1,80.79999999999995,1L35.200000000000045,1ZZM35.200000000000045,5L80.79999999999995,5C88.09999999999991,5,94,10.900000000000091,94,18.200000000000045L94,55.799999999999955C94,63.09999999999991,88.09999999999991,69,80.79999999999995,69L35.200000000000045,69C27.90000000000009,69,22,63.09999999999991,22,55.799999999999955L22,18.200000000000045C22,10.900000000000091,27.90000000000009,5,35.200000000000045,5ZZM56,19L56,33.5L43.59999999999991,26L41.5,29.40000000000009L54.09999999999991,37L41.5,44.59999999999991L43.59999999999991,48L56,40.5L56,55L60,55L60,40.5L72.40000000000009,48L74.5,44.59999999999991L61.90000000000009,37L74.5,29.40000000000009L72.40000000000009,26L60,33.5L60,19L56,19ZZM22,66.79999999999995C25.200000000000045,70.59999999999991,29.90000000000009,73,35.200000000000045,73L80.79999999999995,73C86.09999999999991,73,90.79999999999995,70.59999999999991,94,66.79999999999995L94,69.79999999999995C94,77.09999999999991,88.09999999999991,83,80.79999999999995,83L35.200000000000045,83C27.90000000000009,83,22,77.09999999999991,22,69.79999999999995L22,66.79999999999995ZZ" style="fill: rgb(123, 108, 217); fill-opacity: 1;" /></g><g id="strokes-661b832c-e3a9-11ec-a0f9-493b0ea59227"><g class="stroke-shape"><path rx="0" ry="0" d="M35.200000000000045,1C25.700000000000045,1,18,8.700000000000045,18,18.200000000000045L18,69.79999999999995C18,79.29999999999995,25.700000000000045,87,35.200000000000045,87L80.79999999999995,87C90.29999999999995,87,98,79.29999999999995,98,69.79999999999995L98,18.200000000000045C98,8.700000000000045,90.29999999999995,1,80.79999999999995,1L35.200000000000045,1ZZM35.200000000000045,5L80.79999999999995,5C88.09999999999991,5,94,10.900000000000091,94,18.200000000000045L94,55.799999999999955C94,63.09999999999991,88.09999999999991,69,80.79999999999995,69L35.200000000000045,69C27.90000000000009,69,22,63.09999999999991,22,55.799999999999955L22,18.200000000000045C22,10.900000000000091,27.90000000000009,5,35.200000000000045,5ZZM56,19L56,33.5L43.59999999999991,26L41.5,29.40000000000009L54.09999999999991,37L41.5,44.59999999999991L43.59999999999991,48L56,40.5L56,55L60,55L60,40.5L72.40000000000009,48L74.5,44.59999999999991L61.90000000000009,37L74.5,29.40000000000009L72.40000000000009,26L60,33.5L60,19L56,19ZZM22,66.79999999999995C25.200000000000045,70.59999999999991,29.90000000000009,73,35.200000000000045,73L80.79999999999995,73C86.09999999999991,73,90.79999999999995,70.59999999999991,94,66.79999999999995L94,69.79999999999995C94,77.09999999999991,88.09999999999991,83,80.79999999999995,83L35.200000000000045,83C27.90000000000009,83,22,77.09999999999991,22,69.79999999999995L22,66.79999999999995ZZ" style="fill: none; stroke-width: 1; stroke: rgb(123, 108, 217); stroke-opacity: 1;" /></g></g></g></g><g id="shape-661b8324-e3a9-11ec-a0f9-493b0ea59227"><g id="fills-661b8324-e3a9-11ec-a0f9-493b0ea59227"><path rx="0" ry="0" d="M20.109673673814314,53.5865484528199L3,63.89999570549071" /></g><g id="strokes-661b8324-e3a9-11ec-a0f9-493b0ea59227"><g class="stroke-shape"><defs><marker refX="3" fill-opacity="1" orient="auto-start-reverse" id="marker-187c4ae0-e3b4-11ec-863d-efb322f2e1a1-round" viewBox="0 0 6 6" fill="#7b6cd9" refY="3" markerWidth="6" markerHeight="6"><path d="M 3 2.5 A 0.5 0.5 0 0 1 3 3.5 " /></marker></defs><path rx="0" ry="0" d="M20.109673673814314,53.5865484528199L3,63.89999570549071" style="fill: none; stroke-width: 5; stroke: rgb(123, 108, 217); stroke-opacity: 1; marker-end: url(&quot;#marker-187c4ae0-e3b4-11ec-863d-efb322f2e1a1-round&quot;);" /></g></g></g><g id="shape-661b8326-e3a9-11ec-a0f9-493b0ea59227"><g id="fills-661b8326-e3a9-11ec-a0f9-493b0ea59227"><path rx="0" ry="0" d="M96,53.56688228448206L115.16146462555753,42.01664710950877" /></g><g id="strokes-661b8326-e3a9-11ec-a0f9-493b0ea59227"><g class="stroke-shape"><defs><marker refX="3" fill-opacity="1" orient="auto-start-reverse" id="marker-187ce720-e3b4-11ec-863d-efb322f2e1a1-round" viewBox="0 0 6 6" fill="#7b6cd9" refY="3" markerWidth="6" markerHeight="6"><path d="M 3 2.5 A 0.5 0.5 0 0 1 3 3.5 " /></marker></defs><path rx="0" ry="0" d="M96,53.56688228448206L115.16146462555753,42.01664710950877" style="fill: none; stroke-width: 5; stroke: rgb(123, 108, 217); stroke-opacity: 1; marker-end: url(&quot;#marker-187ce720-e3b4-11ec-863d-efb322f2e1a1-round&quot;);" /></g></g></g><g id="shape-661b8325-e3a9-11ec-a0f9-493b0ea59227"><g id="fills-661b8325-e3a9-11ec-a0f9-493b0ea59227"><path rx="0" ry="0" d="M20.109673673814314,53.5865484528199L3,63.89999570549071" /></g><g id="strokes-661b8325-e3a9-11ec-a0f9-493b0ea59227"><g class="stroke-shape"><defs><marker refX="3" fill-opacity="1" orient="auto-start-reverse" id="marker-187d5c50-e3b4-11ec-863d-efb322f2e1a1-round" viewBox="0 0 6 6" fill="#7b6cd9" refY="3" markerWidth="6" markerHeight="6"><path d="M 3 2.5 A 0.5 0.5 0 0 1 3 3.5 " /></marker></defs><path rx="0" ry="0" d="M20.109673673814314,53.5865484528199L3,63.89999570549071" style="fill: none; stroke-width: 5; stroke: rgb(123, 108, 217); stroke-opacity: 1; marker-end: url(&quot;#marker-187d5c50-e3b4-11ec-863d-efb322f2e1a1-round&quot;);" /></g></g></g><g id="shape-661b8328-e3a9-11ec-a0f9-493b0ea59227"><g id="fills-661b8328-e3a9-11ec-a0f9-493b0ea59227"><path rx="0" ry="0" d="M42,84L42,102L54,102" /></g><g id="strokes-661b8328-e3a9-11ec-a0f9-493b0ea59227"><g class="stroke-shape"><defs><marker refX="3" fill-opacity="1" orient="auto-start-reverse" id="marker-187dd180-e3b4-11ec-863d-efb322f2e1a1-round" viewBox="0 0 6 6" fill="#7b6cd9" refY="3" markerWidth="6" markerHeight="6"><path d="M 3 2.5 A 0.5 0.5 0 0 1 3 3.5 " /></marker></defs><path rx="0" ry="0" d="M42,84L42,102L54,102" style="fill: none; stroke-width: 5; stroke: rgb(123, 108, 217); stroke-opacity: 1; marker-end: url(&quot;#marker-187dd180-e3b4-11ec-863d-efb322f2e1a1-round&quot;);" /></g></g></g><g id="shape-661b832a-e3a9-11ec-a0f9-493b0ea59227"><g id="fills-661b832a-e3a9-11ec-a0f9-493b0ea59227"><path rx="0" ry="0" d="M74,84L74,102L86,102" /></g><g id="strokes-661b832a-e3a9-11ec-a0f9-493b0ea59227"><g class="stroke-shape"><defs><marker refX="3" fill-opacity="1" orient="auto-start-reverse" id="marker-187e1fa0-e3b4-11ec-863d-efb322f2e1a1-round" viewBox="0 0 6 6" fill="#7b6cd9" refY="3" markerWidth="6" markerHeight="6"><path d="M 3 2.5 A 0.5 0.5 0 0 1 3 3.5 " /></marker></defs><path rx="0" ry="0" d="M74,84L74,102L86,102" style="fill: none; stroke-width: 5; stroke: rgb(123, 108, 217); stroke-opacity: 1; marker-end: url(&quot;#marker-187e1fa0-e3b4-11ec-863d-efb322f2e1a1-round&quot;);" /></g></g></g><g id="shape-661b8327-e3a9-11ec-a0f9-493b0ea59227"><g id="fills-661b8327-e3a9-11ec-a0f9-493b0ea59227"><path rx="0" ry="0" d="M96,53.56688228448206L115.16146462555753,42.01664710950877" /></g><g id="strokes-661b8327-e3a9-11ec-a0f9-493b0ea59227"><g class="stroke-shape"><defs><marker refX="3" fill-opacity="1" orient="auto-start-reverse" id="marker-187e94d0-e3b4-11ec-863d-efb322f2e1a1-round" viewBox="0 0 6 6" fill="#7b6cd9" refY="3" markerWidth="6" markerHeight="6"><path d="M 3 2.5 A 0.5 0.5 0 0 1 3 3.5 " /></marker></defs><path rx="0" ry="0" d="M96,53.56688228448206L115.16146462555753,42.01664710950877" style="fill: none; stroke-width: 5; stroke: rgb(123, 108, 217); stroke-opacity: 1; marker-end: url(&quot;#marker-187e94d0-e3b4-11ec-863d-efb322f2e1a1-round&quot;);" /></g></g></g><g id="shape-661b8329-e3a9-11ec-a0f9-493b0ea59227"><g id="fills-661b8329-e3a9-11ec-a0f9-493b0ea59227"><path rx="0" ry="0" d="M42,84L42,102L54,102" /></g><g id="strokes-661b8329-e3a9-11ec-a0f9-493b0ea59227"><g class="stroke-shape"><defs><marker refX="3" fill-opacity="1" orient="auto-start-reverse" id="marker-187ee2f0-e3b4-11ec-863d-efb322f2e1a1-round" viewBox="0 0 6 6" fill="#7b6cd9" refY="3" markerWidth="6" markerHeight="6"><path d="M 3 2.5 A 0.5 0.5 0 0 1 3 3.5 " /></marker></defs><path rx="0" ry="0" d="M42,84L42,102L54,102" style="fill: none; stroke-width: 5; stroke: rgb(123, 108, 217); stroke-opacity: 1; marker-end: url(&quot;#marker-187ee2f0-e3b4-11ec-863d-efb322f2e1a1-round&quot;);" /></g></g></g><g id="shape-661b832b-e3a9-11ec-a0f9-493b0ea59227"><g id="fills-661b832b-e3a9-11ec-a0f9-493b0ea59227"><path rx="0" ry="0" d="M74,84L74,102L86,102" /></g><g id="strokes-661b832b-e3a9-11ec-a0f9-493b0ea59227"><g class="stroke-shape"><defs><marker refX="3" fill-opacity="1" orient="auto-start-reverse" id="marker-187f3110-e3b4-11ec-863d-efb322f2e1a1-round" viewBox="0 0 6 6" fill="#7b6cd9" refY="3" markerWidth="6" markerHeight="6"><path d="M 3 2.5 A 0.5 0.5 0 0 1 3 3.5 " /></marker></defs><path rx="0" ry="0" d="M74,84L74,102L86,102" style="fill: none; stroke-width: 5; stroke: rgb(123, 108, 217); stroke-opacity: 1; marker-end: url(&quot;#marker-187f3110-e3b4-11ec-863d-efb322f2e1a1-round&quot;);" /></g></g></g></g></g></g></g></svg>
