<svg width="152" height="220" viewBox="0 0 127 184" fill="none" xmlns="http://www.w3.org/2000/svg"><path d="M7.82568 174.501L23.3257 131.001C52.8749 137.508 72.6181 143.564 103.826 135.001C111.05 148.279 114.101 161.223 121.326 174.501C115.575 171.676 112.747 171.756 108.326 174.501C102.171 170.814 100.059 172.108 96.3257 174.501C88.1576 168.27 84.0522 170.116 76.8257 174.501C70.342 169.446 66.8634 169.941 60.8257 174.501C51.247 168.701 46.9661 170.784 39.3364 174.496L39.3257 174.501C33.6234 170.857 30.5816 171.207 25.3257 174.501C18.7562 170.383 14.8574 171.426 7.82568 174.501Z" fill="#8B6CEF" stroke="#8B6CEF" stroke-width="4" /><path d="M80.3257 164.501V181.501H68.3257" stroke="#FF820F" stroke-width="5" stroke-linecap="round" /><path d="M48.3257 164.501V181.501H36.3257" stroke="#FF820F" stroke-width="5" stroke-linecap="round" /><path d="M87.1257 80.501C96.6257 80.501 104.326 88.201 104.326 97.701V149.301C104.326 158.801 96.6257 166.501 87.1257 166.501H41.5257C32.0257 166.501 24.3257 158.801 24.3257 149.301V97.701C24.3257 88.201 32.0257 80.501 41.5257 80.501H87.1257ZM87.1257 84.501H41.5257C34.2257 84.501 28.3257 90.401 28.3257 97.701V135.301C28.3257 142.601 34.2257 148.501 41.5257 148.501H87.1257C94.4257 148.501 100.326 142.601 100.326 135.301V97.701C100.326 90.401 94.4257 84.501 87.1257 84.501ZM66.3257 98.501V113.001L78.7257 105.501L80.8257 108.901L68.2257 116.501L80.8257 124.101L78.7257 127.501L66.3257 120.001V134.501H62.3257V120.001L49.9257 127.501L47.8257 124.101L60.4257 116.501L47.8257 108.901L49.9257 105.501L62.3257 113.001V98.501H66.3257ZM100.326 146.301C97.1257 150.101 92.4257 152.501 87.1257 152.501H41.5257C36.2257 152.501 31.5257 150.101 28.3257 146.301V149.301C28.3257 156.601 34.2257 162.501 41.5257 162.501H87.1257C94.4257 162.501 100.326 156.601 100.326 149.301V146.301Z" fill="#FF820F" stroke="#FF820F" /><path d="M102.326 133.501L119.326 144.105" stroke="#FF820F" stroke-width="5" stroke-linecap="round" /><path d="M7.22161 120.99L26.3257 133.116" stroke="#FF820F" stroke-width="5" stroke-linecap="round" /><path d="M9.32568 136.501L3.32568 105.501" stroke="black" stroke-width="4" /><path d="M3.36682 105.807L1.95891 99.5009" stroke="white" stroke-width="4" /><path d="M39.8257 78.501H88.3257L58.8257 7.00098L39.8257 78.501Z" fill="#8B6CEF" stroke="#8B6CEF" stroke-width="4" /><path d="M70.3257 57.119L69.6786 59.1104L69.5664 59.4559H69.2031H67.1092L68.8032 60.6866L69.0971 60.9002L68.9849 61.2457L68.3378 63.237L70.0318 62.0063L70.3257 61.7928L70.6196 62.0063L72.3136 63.237L71.6665 61.2457L71.5543 60.9002L71.8481 60.6866L73.5421 59.4559H71.4483H71.085L70.9727 59.1104L70.3257 57.119Z" fill="#FFF50F" stroke="#FFF50F" /><path d="M58.3537 35.403L55.5616 39.5509L55.3588 39.8523L55.0095 39.7525L50.2018 38.3788L53.2839 42.316L53.5078 42.602L53.3049 42.9034L50.5129 47.0512L55.2098 45.3367L55.551 45.2121L55.7749 45.4982L58.857 49.4353L58.6778 44.4385L58.6647 44.0755L59.006 43.9509L63.7029 42.2364L58.8952 40.8627L58.5459 40.7629L58.5329 40.3999L58.3537 35.403Z" fill="#FFF50F" stroke="#FFF50F" /><path d="M22.8257 125.501C51.8148 144.152 71.5061 151.504 105.826 131.001" stroke="#5845CF" stroke-width="4" /><path d="M58.101 145.285C57.3014 146.027 56.7929 146.859 56.5843 147.564C56.3685 148.293 56.5117 148.696 56.6741 148.871C56.8366 149.046 57.2281 149.219 57.9715 149.059C58.69 148.903 59.5579 148.458 60.3574 147.716C61.1569 146.975 61.6654 146.142 61.8741 145.437C62.0899 144.708 61.9467 144.305 61.7843 144.13C61.6218 143.955 61.2302 143.782 60.4869 143.942C59.7683 144.098 58.9005 144.543 58.101 145.285Z" stroke="#5845CF" stroke-width="2" /><path d="M63.7886 148.113C64.5322 149.072 65.3943 149.731 66.1439 150.049C66.9278 150.381 67.3663 150.268 67.5492 150.126C67.7321 149.984 67.9514 149.588 67.8244 148.746C67.703 147.94 67.2791 146.941 66.5354 145.982C65.7917 145.023 64.9296 144.364 64.18 144.046C63.3962 143.714 62.9577 143.827 62.7748 143.969C62.5919 144.111 62.3726 144.508 62.4995 145.349C62.6209 146.155 63.0449 147.154 63.7886 148.113Z" stroke="#5845CF" stroke-width="2" /><ellipse rx="41.5" ry="4" transform="matrix(-1 0 0 1 62.8257 79.501)" fill="#8B6CEF" /><path d="M48.7999 64.3399L48.7051 67.8856L48.6954 68.2487L48.3471 68.3517L44.9456 69.3573L48.2885 70.5431L48.6309 70.6645L48.6212 71.0276L48.5264 74.5733L50.6872 71.7605L50.9085 71.4724L51.2508 71.5939L54.5937 72.7796L52.5863 69.8554L52.3807 69.5559L52.602 69.2679L54.7627 66.455L51.3613 67.4606L51.0129 67.5636L50.8073 67.2641L48.7999 64.3399Z" fill="#FFF50F" stroke="#FFF50F" /></svg>