<svg width="118" xmlns="http://www.w3.org/2000/svg" height="105" style="-webkit-print-color-adjust:exact" fill="none"><defs><clipPath id="a" class="frame-clip"><rect rx="0" ry="0" width="118" height="105"/></clipPath></defs><g clip-path="url(#a)"><rect rx="0" ry="0" width="118" height="105" class="frame-background"/><g class="frame-children"><g class="any-key" style="fill:#000"><path d="M35.2 1C25.7 1 18 8.7 18 18.2v51.6C18 79.3 25.7 87 35.2 87h45.6C90.3 87 98 79.3 98 69.8V18.2C98 8.7 90.3 1 80.8 1H35.2Zm0 4h45.6C88.1 5 94 10.9 94 18.2v37.6C94 63.1 88.1 69 80.8 69H35.2C27.9 69 22 63.1 22 55.8V18.2C22 10.9 27.9 5 35.2 5ZM56 19v14.5L43.6 26l-2.1 3.4L54.1 37l-12.6 7.6 2.1 3.4L56 40.5V55h4V40.5L72.4 48l2.1-3.4L61.9 37l12.6-7.6-2.1-3.4L60 33.5V19h-4ZM22 66.8c3.2 3.8 7.9 6.2 13.2 6.2h45.6c5.3 0 10-2.4 13.2-6.2v3C94 77.1 88.1 83 80.8 83H35.2C27.9 83 22 77.1 22 69.8v-3Z" style="fill:#7b6cd9;fill-opacity:1"/><path d="M35.2 1C25.7 1 18 8.7 18 18.2v51.6C18 79.3 25.7 87 35.2 87h45.6C90.3 87 98 79.3 98 69.8V18.2C98 8.7 90.3 1 80.8 1H35.2Zm0 4h45.6C88.1 5 94 10.9 94 18.2v37.6C94 63.1 88.1 69 80.8 69H35.2C27.9 69 22 63.1 22 55.8V18.2C22 10.9 27.9 5 35.2 5ZM56 19v14.5L43.6 26l-2.1 3.4L54.1 37l-12.6 7.6 2.1 3.4L56 40.5V55h4V40.5L72.4 48l2.1-3.4L61.9 37l12.6-7.6-2.1-3.4L60 33.5V19h-4ZM22 66.8c3.2 3.8 7.9 6.2 13.2 6.2h45.6c5.3 0 10-2.4 13.2-6.2v3C94 77.1 88.1 83 80.8 83H35.2C27.9 83 22 77.1 22 69.8v-3Z" style="fill:none;stroke-width:1;stroke:#7b6cd9;stroke-opacity:1" class="stroke-shape"/></g><path d="M20.11 53.587 3 63.9"/><g class="stroke-shape"><defs><marker refX="3" fill-opacity="1" orient="auto-start-reverse" id="b" viewBox="0 0 6 6" fill="#7b6cd9" refY="3" markerWidth="6" markerHeight="6"><path d="M3 2.5a.5.5 0 0 1 0 1"/></marker></defs><path d="M20.11 53.587 3 63.9" style="fill:none;stroke-width:5;stroke:#7b6cd9;stroke-opacity:1;marker-end:url(#b)"/></g><path d="m96 53.567 19.161-11.55"/><g class="stroke-shape"><defs><marker refX="3" fill-opacity="1" orient="auto-start-reverse" id="c" viewBox="0 0 6 6" fill="#7b6cd9" refY="3" markerWidth="6" markerHeight="6"><path d="M3 2.5a.5.5 0 0 1 0 1"/></marker></defs><path d="m96 53.567 19.161-11.55" style="fill:none;stroke-width:5;stroke:#7b6cd9;stroke-opacity:1;marker-end:url(#c)"/></g><path d="M20.11 53.587 3 63.9"/><g class="stroke-shape"><defs><marker refX="3" fill-opacity="1" orient="auto-start-reverse" id="d" viewBox="0 0 6 6" fill="#7b6cd9" refY="3" markerWidth="6" markerHeight="6"><path d="M3 2.5a.5.5 0 0 1 0 1"/></marker></defs><path d="M20.11 53.587 3 63.9" style="fill:none;stroke-width:5;stroke:#7b6cd9;stroke-opacity:1;marker-end:url(#d)"/></g><path d="M42 84v18h12"/><g class="stroke-shape"><defs><marker refX="3" fill-opacity="1" orient="auto-start-reverse" id="e" viewBox="0 0 6 6" fill="#7b6cd9" refY="3" markerWidth="6" markerHeight="6"><path d="M3 2.5a.5.5 0 0 1 0 1"/></marker></defs><path d="M42 84v18h12" style="fill:none;stroke-width:5;stroke:#7b6cd9;stroke-opacity:1;marker-end:url(#e)"/></g><path d="M74 84v18h12"/><g class="stroke-shape"><defs><marker refX="3" fill-opacity="1" orient="auto-start-reverse" id="f" viewBox="0 0 6 6" fill="#7b6cd9" refY="3" markerWidth="6" markerHeight="6"><path d="M3 2.5a.5.5 0 0 1 0 1"/></marker></defs><path d="M74 84v18h12" style="fill:none;stroke-width:5;stroke:#7b6cd9;stroke-opacity:1;marker-end:url(#f)"/></g><path d="m96 53.567 19.161-11.55"/><g class="stroke-shape"><defs><marker refX="3" fill-opacity="1" orient="auto-start-reverse" id="g" viewBox="0 0 6 6" fill="#7b6cd9" refY="3" markerWidth="6" markerHeight="6"><path d="M3 2.5a.5.5 0 0 1 0 1"/></marker></defs><path d="m96 53.567 19.161-11.55" style="fill:none;stroke-width:5;stroke:#7b6cd9;stroke-opacity:1;marker-end:url(#g)"/></g><path d="M42 84v18h12"/><g class="stroke-shape"><defs><marker refX="3" fill-opacity="1" orient="auto-start-reverse" id="h" viewBox="0 0 6 6" fill="#7b6cd9" refY="3" markerWidth="6" markerHeight="6"><path d="M3 2.5a.5.5 0 0 1 0 1"/></marker></defs><path d="M42 84v18h12" style="fill:none;stroke-width:5;stroke:#7b6cd9;stroke-opacity:1;marker-end:url(#h)"/></g><path d="M74 84v18h12"/><g class="stroke-shape"><defs><marker refX="3" fill-opacity="1" orient="auto-start-reverse" id="i" viewBox="0 0 6 6" fill="#7b6cd9" refY="3" markerWidth="6" markerHeight="6"><path d="M3 2.5a.5.5 0 0 1 0 1"/></marker></defs><path d="M74 84v18h12" style="fill:none;stroke-width:5;stroke:#7b6cd9;stroke-opacity:1;marker-end:url(#i)"/></g></g></g></svg>