<svg width="123" height="188" viewBox="0 0 123 188" fill="none" xmlns="http://www.w3.org/2000/svg"><path d="M119 175L103.432 133C73.7524 139.283 53.9222 145.129 22.5771 136.862C15.3206 149.682 12.2565 162.18 5 175C10.7765 172.272 13.6163 172.349 18.0573 175C24.2389 171.44 26.3603 172.689 30.1101 175C38.3142 168.983 42.4376 170.766 49.696 175C56.2083 170.119 59.7022 170.597 65.7665 175C75.3874 169.4 79.6872 171.411 87.3505 174.994L87.3612 175C93.0886 171.481 96.1438 171.819 101.423 175C108.021 171.024 111.937 172.03 119 175Z" fill="#A80000" stroke="#A80000" stroke-width="4" /><path d="M36.156 79.2386L84.6308 77.676L52.8425 7.1636L36.156 79.2386Z" fill="#B50D0D" stroke="#B50D0D" stroke-width="4" /><ellipse cx="84" cy="172.5" rx="8" ry="6.5" fill="white" /><ellipse cx="92" cy="174.5" rx="8" ry="6.5" fill="white" /><ellipse cx="100" cy="172.5" rx="8" ry="6.5" fill="white" /><ellipse cx="111" cy="174.5" rx="8" ry="6.5" fill="white" /><ellipse cx="114" cy="176.5" rx="8" ry="6.5" fill="white" /><ellipse cx="75" cy="174.5" rx="8" ry="6.5" fill="white" /><ellipse cx="66" cy="172.5" rx="8" ry="6.5" fill="white" /><ellipse cx="57" cy="172.5" rx="8" ry="6.5" fill="white" /><ellipse cx="48" cy="174.5" rx="8" ry="6.5" fill="white" /><ellipse cx="41" cy="172.5" rx="8" ry="6.5" fill="white" /><ellipse cx="36" cy="174.5" rx="8" ry="6.5" fill="white" /><ellipse cx="30" cy="173.5" rx="8" ry="6.5" fill="white" /><ellipse cx="28" cy="172.5" rx="8" ry="6.5" fill="white" /><ellipse cx="24" cy="174.5" rx="8" ry="6.5" fill="white" /><ellipse cx="19" cy="172.5" rx="8" ry="6.5" fill="white" /><ellipse cx="13" cy="174.5" rx="8" ry="6.5" fill="white" /><ellipse cx="8" cy="175.5" rx="8" ry="6.5" fill="white" /><path d="M46 166V183H58" stroke="#28CC39" stroke-width="5" stroke-linecap="round" /><path d="M78 166V183H90" stroke="#28CC39" stroke-width="5" stroke-linecap="round" /><path d="M39.2 81.9995C29.7 81.9995 22 89.6995 22 99.1995V150.8C22 160.3 29.7 168 39.2 168H84.8C94.3 168 102 160.3 102 150.8V99.1995C102 89.6995 94.3 81.9995 84.8 81.9995H39.2ZM39.2 85.9995H84.8C92.1 85.9995 98 91.8995 98 99.1995V136.8C98 144.1 92.1 150 84.8 150H39.2C31.9 150 26 144.1 26 136.8V99.1995C26 91.8995 31.9 85.9995 39.2 85.9995ZM60 99.9995V114.5L47.6 107L45.5 110.4L58.1 118L45.5 125.6L47.6 129L60 121.5V136H64V121.5L76.4 129L78.5 125.6L65.9 118L78.5 110.4L76.4 107L64 114.5V99.9995H60ZM26 147.8C29.2 151.6 33.9 154 39.2 154H84.8C90.1 154 94.8 151.6 98 147.8V150.8C98 158.1 92.1 164 84.8 164H39.2C31.9 164 26 158.1 26 150.8V147.8Z" fill="#28CC39" stroke="#28CC39" /><path d="M24 134.999L6.99997 145.603" stroke="#28CC39" stroke-width="5" stroke-linecap="round" /><path d="M119.104 122.489L100 134.614" stroke="#28CC39" stroke-width="5" stroke-linecap="round" /><path d="M83.5 177V172.5H74.5V177H83.5ZM79 183H74.5V187.5H79V183ZM89 187.5C91.4853 187.5 93.5 185.485 93.5 183C93.5 180.514 91.4853 178.5 89 178.5V187.5ZM74.5 177V183H83.5V177H74.5ZM79 187.5H89V178.5H79V187.5Z" fill="black" /><path d="M51.5 177V172.5H42.5V177H51.5ZM47 183H42.5V187.5H47V183ZM57 187.5C59.4853 187.5 61.5 185.485 61.5 183C61.5 180.514 59.4853 178.5 57 178.5V187.5ZM42.5 177V183H51.5V177H42.5ZM47 187.5H57V178.5H47V187.5Z" fill="black" /><ellipse cx="37.1555" cy="79.2062" rx="8" ry="6.5" transform="rotate(-1.84634 37.1555 79.2062)" fill="white" /><ellipse cx="42.0885" cy="77.046" rx="8" ry="6.5" transform="rotate(-1.84634 42.0885 77.046)" fill="white" /><ellipse cx="45.1513" cy="78.9483" rx="8" ry="6.5" transform="rotate(-1.84634 45.1513 78.9483)" fill="white" /><ellipse cx="53.0827" cy="76.692" rx="8" ry="6.5" transform="rotate(-1.84634 53.0827 76.692)" fill="white" /><ellipse cx="58.1445" cy="78.5299" rx="8" ry="6.5" transform="rotate(-1.84634 58.1445 78.5299)" fill="white" /><ellipse cx="66.0759" cy="76.2731" rx="8" ry="6.5" transform="rotate(-1.84634 66.0759 76.2731)" fill="white" /><ellipse cx="69.1389" cy="78.1754" rx="8" ry="6.5" transform="rotate(-1.84634 69.1389 78.1754)" fill="white" /><ellipse cx="79.0692" cy="75.8541" rx="8" ry="6.5" transform="rotate(-1.84634 79.0692 75.8541)" fill="white" /><ellipse cx="82.1321" cy="77.7565" rx="8" ry="6.5" transform="rotate(-1.84634 82.1321 77.7565)" fill="white" /><ellipse cx="52.8585" cy="7.66343" rx="8" ry="6.5" transform="rotate(-1.84634 52.8585 7.66343)" fill="white" /><path d="M103.5 127C74.5109 145.65 54.8196 153.503 20.5 133" stroke="#750000" stroke-width="4" /><path d="M67.2248 147.783C68.0243 148.525 68.5328 149.358 68.7415 150.062C68.9573 150.792 68.8141 151.195 68.6516 151.37C68.4892 151.545 68.0976 151.718 67.3543 151.557C66.6357 151.402 65.7679 150.957 64.9684 150.215C64.1688 149.473 63.6603 148.641 63.4517 147.936C63.2359 147.207 63.379 146.804 63.5415 146.628C63.7039 146.453 64.0955 146.281 64.8389 146.441C65.5574 146.597 66.4252 147.042 67.2248 147.783Z" stroke="#750000" stroke-width="2" /><path d="M61.5372 150.611C60.7935 151.57 59.9314 152.23 59.1818 152.548C58.398 152.88 57.9595 152.766 57.7766 152.625C57.5937 152.483 57.3744 152.086 57.5013 151.244C57.6227 150.439 58.0467 149.44 58.7903 148.481C59.534 147.522 60.3961 146.863 61.1457 146.545C61.9296 146.212 62.3681 146.326 62.551 146.468C62.7339 146.61 62.9532 147.006 62.8262 147.848C62.7048 148.653 62.2809 149.652 61.5372 150.611Z" stroke="#750000" stroke-width="2" /></svg>