<svg width="124" height="189" viewBox="0 0 124 189" fill="none" xmlns="http://www.w3.org/2000/svg"><path d="M120 175.999L104.432 133.999C74.7524 140.282 54.9222 146.129 23.5771 137.861C16.3206 150.681 13.2565 163.179 6 175.999C11.7765 173.272 14.6163 173.349 19.0573 175.999C25.2389 172.439 27.3603 173.689 31.1101 175.999C39.3142 169.983 43.4376 171.766 50.696 175.999C57.2083 171.119 60.7022 171.597 66.7665 175.999C76.3874 170.399 80.6872 172.41 88.3505 175.994L88.3612 175.999C94.0886 172.481 97.1438 172.819 102.423 175.999C109.021 172.023 112.937 173.03 120 175.999Z" fill="#A80000" stroke="#A80000" stroke-width="4" /><path d="M37.156 80.2386L85.6308 78.676L53.8425 8.1636L37.156 80.2386Z" fill="#B50D0D" stroke="#B50D0D" stroke-width="4" /><ellipse cx="85" cy="173.499" rx="8" ry="6.5" fill="#E9E9E9" /><ellipse cx="93" cy="175.499" rx="8" ry="6.5" fill="#E9E9E9" /><ellipse cx="101" cy="173.499" rx="8" ry="6.5" fill="#E9E9E9" /><ellipse cx="112" cy="175.499" rx="8" ry="6.5" fill="#E9E9E9" /><ellipse cx="116" cy="177.499" rx="8" ry="6.5" fill="#E9E9E9" /><ellipse cx="76" cy="175.499" rx="8" ry="6.5" fill="#E9E9E9" /><ellipse cx="67" cy="173.499" rx="8" ry="6.5" fill="#E9E9E9" /><ellipse cx="58" cy="173.499" rx="8" ry="6.5" fill="#E9E9E9" /><ellipse cx="49" cy="175.499" rx="8" ry="6.5" fill="#E9E9E9" /><ellipse cx="42" cy="173.499" rx="8" ry="6.5" fill="#E9E9E9" /><ellipse cx="37" cy="175.499" rx="8" ry="6.5" fill="#E9E9E9" /><ellipse cx="31" cy="174.499" rx="8" ry="6.5" fill="#E9E9E9" /><ellipse cx="29" cy="173.499" rx="8" ry="6.5" fill="#E9E9E9" /><ellipse cx="25" cy="175.499" rx="8" ry="6.5" fill="#E9E9E9" /><ellipse cx="20" cy="173.499" rx="8" ry="6.5" fill="#E9E9E9" /><ellipse cx="14" cy="175.499" rx="8" ry="6.5" fill="#E9E9E9" /><ellipse cx="8" cy="177.499" rx="8" ry="6.5" fill="#E9E9E9" /><path d="M47 166.999V183.999H59" stroke="#28CC39" stroke-width="5" stroke-linecap="round" /><path d="M79 166.999V183.999H91" stroke="#28CC39" stroke-width="5" stroke-linecap="round" /><path d="M40.2 82.9993C30.7 82.9993 23 90.6993 23 100.199V151.799C23 161.299 30.7 168.999 40.2 168.999H85.8C95.3 168.999 103 161.299 103 151.799V100.199C103 90.6993 95.3 82.9993 85.8 82.9993H40.2ZM40.2 86.9993H85.8C93.1 86.9993 99 92.8993 99 100.199V137.799C99 145.099 93.1 150.999 85.8 150.999H40.2C32.9 150.999 27 145.099 27 137.799V100.199C27 92.8993 32.9 86.9993 40.2 86.9993ZM61 100.999V115.499L48.6 107.999L46.5 111.399L59.1 118.999L46.5 126.599L48.6 129.999L61 122.499V136.999H65V122.499L77.4 129.999L79.5 126.599L66.9 118.999L79.5 111.399L77.4 107.999L65 115.499V100.999H61ZM27 148.799C30.2 152.599 34.9 154.999 40.2 154.999H85.8C91.1 154.999 95.8 152.599 99 148.799V151.799C99 159.099 93.1 164.999 85.8 164.999H40.2C32.9 164.999 27 159.099 27 151.799V148.799Z" fill="#28CC39" stroke="#28CC39" /><path d="M25 135.999L7.99997 146.603" stroke="#28CC39" stroke-width="5" stroke-linecap="round" /><path d="M120.104 123.488L101 135.614" stroke="#28CC39" stroke-width="5" stroke-linecap="round" /><path d="M84.5 177.999V173.499H75.5V177.999H84.5ZM80 183.999H75.5V188.499H80V183.999ZM90 188.499C92.4853 188.499 94.5 186.485 94.5 183.999C94.5 181.514 92.4853 179.499 90 179.499V188.499ZM75.5 177.999V183.999H84.5V177.999H75.5ZM80 188.499H90V179.499H80V188.499Z" fill="#303030" /><path d="M52.5 177.999V173.499H43.5V177.999H52.5ZM48 183.999H43.5V188.499H48V183.999ZM58 188.499C60.4853 188.499 62.5 186.485 62.5 183.999C62.5 181.514 60.4853 179.499 58 179.499V188.499ZM43.5 177.999V183.999H52.5V177.999H43.5ZM48 188.499H58V179.499H48V188.499Z" fill="#303030" /><ellipse cx="38.1555" cy="80.2062" rx="8" ry="6.5" transform="rotate(-1.84634 38.1555 80.2062)" fill="#E9E9E9" /><ellipse cx="43.0885" cy="78.046" rx="8" ry="6.5" transform="rotate(-1.84634 43.0885 78.046)" fill="#E9E9E9" /><ellipse cx="46.1513" cy="79.9483" rx="8" ry="6.5" transform="rotate(-1.84634 46.1513 79.9483)" fill="#E9E9E9" /><ellipse cx="54.0827" cy="77.692" rx="8" ry="6.5" transform="rotate(-1.84634 54.0827 77.692)" fill="#E9E9E9" /><ellipse cx="59.1445" cy="79.5299" rx="8" ry="6.5" transform="rotate(-1.84634 59.1445 79.5299)" fill="#E9E9E9" /><ellipse cx="67.0759" cy="77.2731" rx="8" ry="6.5" transform="rotate(-1.84634 67.0759 77.2731)" fill="#E9E9E9" /><ellipse cx="70.1389" cy="79.1754" rx="8" ry="6.5" transform="rotate(-1.84634 70.1389 79.1754)" fill="#E9E9E9" /><ellipse cx="80.0692" cy="76.8541" rx="8" ry="6.5" transform="rotate(-1.84634 80.0692 76.8541)" fill="#E9E9E9" /><ellipse cx="83.1321" cy="78.7565" rx="8" ry="6.5" transform="rotate(-1.84634 83.1321 78.7565)" fill="#E9E9E9" /><ellipse cx="53.8585" cy="7.66343" rx="8" ry="6.5" transform="rotate(-1.84634 53.8585 7.66343)" fill="#E9E9E9" /><path d="M104.5 127.999C75.5109 146.65 55.8196 154.503 21.5 133.999" stroke="#750000" stroke-width="4" /><path d="M68.2248 148.783C69.0243 149.525 69.5328 150.357 69.7415 151.062C69.9573 151.791 69.8141 152.195 69.6516 152.37C69.4892 152.545 69.0976 152.718 68.3543 152.557C67.6357 152.402 66.7679 151.957 65.9684 151.215C65.1688 150.473 64.6603 149.641 64.4517 148.936C64.2359 148.207 64.379 147.803 64.5415 147.628C64.7039 147.453 65.0955 147.28 65.8389 147.441C66.5574 147.596 67.4252 148.041 68.2248 148.783Z" stroke="#750000" stroke-width="2" /><path d="M62.5372 151.611C61.7935 152.57 60.9314 153.229 60.1818 153.547C59.398 153.88 58.9595 153.766 58.7766 153.624C58.5937 153.482 58.3744 153.086 58.5013 152.244C58.6227 151.439 59.0467 150.44 59.7903 149.481C60.534 148.522 61.3961 147.863 62.1457 147.545C62.9296 147.212 63.3681 147.326 63.551 147.468C63.7339 147.61 63.9532 148.006 63.8262 148.848C63.7048 149.653 63.2809 150.652 62.5372 151.611Z" stroke="#750000" stroke-width="2" /></svg>